cover


Genre:Action | Horror
Language:English
IMDb:http://www.imdb.com/title/tt1251368/
Source:NTSC DVDR


General
Complete name :Assault.Of.The.Sasquatch.2009.DvDRip.XviD.Ac3.Feel-Free
Format : AVI
Format/Info : Audio Video Interleave
File size : 1.04 GiB
Duration : 1h 24mn
Overall bit rate : 1 756 Kbps
Video #0
Muxing mode : Packed bitstream
Codec ID : XVID
Codec ID/Hint : XviD
Duration : 1h 24mn
Bit rate : 1 299 Kbps
Width : 720 pixels
Height : 304 pixels
Display aspect ratio : 2.35:1
Frame rate : 23.976 fps
Resolution : 24 bits
Colorimetry : 4:2:0
Scan type : Progressive
Bits/(Pixel*Frame) : 0.248
Stream size : 787 MiB (74%)
Writing library : XviD 1.2.1 (UTC 2008-12-04)
Audio #1
ID : 1
Format : AC-3
Format/Info : Audio Coding 3
Codec ID : 2000
Duration : 1h 24mn
Bit rate mode : Constant
Bit rate : 448 Kbps
Channel(s) : 6 channels
Channel positions : Front: L C R, Surround: L R, LFE
Sampling rate : 48.0 KHz
Stream size : 271 MiB (25%)
Alignment : Split accross interleaves
Interleave, duration : 42 ms (1.00 video frame)
Interleave, preload duration : 500 ms

Plot:
When a merciless bear poacher is caught and arrested deep in the woods of a state park, he and his truck are taken to a neglected precinct in the heart of a dying city. Unbeknownst to the authorities, the impounded truck holds a deadly cargo in the form of the legendary Sasquatch. Now, stuck in an unfamiliar world
 
http://img841.imageshack.us/img841/846/assaultofthesasquatch20.jpg 
http://img229.imageshack.us/img229/846/assaultofthesasquatch20.jpg 
http://img641.imageshack.us/img641/846/assaultofthesasquatch20.jpg 
http://img10.imageshack.us/img10/846/assaultofthesasquatch20.jpg 
http://img829.imageshack.us/img829/846/assaultofthesasquatch20.jpg